<?xml version="1.0" encoding="UTF-8"?>
<!DOCTYPE svg PUBLIC "-//W3C//DTD SVG 1.1//EN" "http://www.w3.org/Graphics/SVG/1.1/DTD/svg11.dtd">
<!-- Creator: CorelDRAW -->
<svg xmlns="http://www.w3.org/2000/svg" xml:space="preserve" width="512px" height="512px" version="1.1" style="shape-rendering:geometricPrecision; text-rendering:geometricPrecision; image-rendering:optimizeQuality; fill-rule:evenodd; clip-rule:evenodd"
viewBox="0 0 512 512"
 xmlns:xlink="http://www.w3.org/1999/xlink">
 <defs>
  <style type="text/css">
   <![CDATA[
    .fil0 {fill:#2D2910}
    .fil5 {fill:#4A6F05}
    .fil6 {fill:#B72900}
    .fil3 {fill:#CF9C05}
    .fil1 {fill:#DA9800}
    .fil4 {fill:#F7FFE3}
    .fil2 {fill:#FFC007}
   ]]>
  </style>
 </defs>
 <g id="Layer_x0020_1">
  <metadata id="CorelCorpID_0Corel-Layer"/>
  <path class="fil0" d="M95 491c-15,0 -28,-11 -28,-24l0 -32c0,-4 3,-7 7,-7 20,0 23,0 42,0 4,0 8,3 8,7l0 32c-1,13 -14,24 -29,24z"/>
  <path class="fil1" d="M374 60c-4,0 -52,1 -52,1 -5,0 -9,-4 -9,-9l0 -11c0,-11 8,-20 18,-20l34 0c10,0 18,9 18,20l0 11c0,4 -4,8 -9,8z"/>
  <path class="fil0" d="M447 110c-116,0 -297,0 -369,0 -4,0 -7,-3 -7,-7l0 -25c0,-18 14,-32 32,-32l318 0c18,0 32,14 32,32l0 25c1,4 -2,7 -6,7z"/>
  <path class="fil2" d="M472 443l-19 0 -16 0 -88 0c-1,0 -1,0 -2,0l-307 0c-22,0 -40,-18 -40,-40l0 -267c0,-22 18,-40 40,-40l432 0c22,0 40,17 40,40l0 266c0,22 -18,41 -40,41z"/>
  <path class="fil3" d="M450 443l-13 0 -88 0c-1,0 -1,0 -2,0l-13 0c0,-1 0,-3 0,-4 0,-32 26,-58 58,-58 32,0 58,26 58,58 0,1 0,2 0,4z"/>
  <path class="fil4" d="M311 96l15 0 0 259 186 0 0 15 -193 0c-4,0 -8,-4 -8,-8l0 -266z"/>
  <path class="fil1" d="M97 373c-23,0 -42,-19 -42,-41l0 -143c0,-23 19,-41 42,-41 23,0 41,18 41,41l0 143c0,23 -18,41 -41,41z"/>
  <path class="fil0" d="M392 491c-29,0 -52,-23 -52,-52 0,-29 23,-52 52,-52 29,0 52,23 52,52 0,29 -23,52 -52,52z"/>
  <path class="fil5" d="M218 372c-20,0 -36,-16 -36,-36 0,-20 16,-37 36,-37 20,0 36,17 36,37 0,20 -16,36 -36,36zm0 -58c-12,0 -21,10 -21,22 0,12 9,21 21,21 12,0 22,-9 22,-21 0,-12 -10,-22 -22,-22z"/>
  <path class="fil6" d="M218 282c-20,0 -36,-17 -36,-37 0,-20 16,-36 36,-36 20,0 36,16 36,36 0,20 -16,37 -36,37zm0 -59c-12,0 -21,10 -21,22 0,12 9,22 21,22 12,0 22,-10 22,-22 0,-12 -10,-22 -22,-22z"/>
  <path class="fil0" d="M262 409l-205 0c-4,0 -7,-3 -7,-7 0,-4 3,-8 7,-8l205 0c4,0 7,4 7,8 0,4 -3,7 -7,7z"/>
  <path class="fil0" d="M232 141l-58 0c-4,0 -7,-3 -7,-8 0,-4 3,-7 7,-7l58 0c4,0 7,3 7,7 0,5 -3,8 -7,8z"/>
  <path class="fil0" d="M232 172l-58 0c-4,0 -7,-4 -7,-8 0,-4 3,-7 7,-7l58 0c4,0 7,3 7,7 0,4 -3,8 -7,8z"/>
  <path class="fil6" d="M247 252l-29 0c-4,0 -8,-3 -8,-7 0,-4 4,-8 8,-8l29 0c4,0 7,4 7,8 0,4 -3,7 -7,7z"/>
  <path class="fil4" d="M364 341c-1,0 -3,0 -4,-1 -3,-2 -4,-6 -3,-9l34 -84 -28 0c-2,0 -5,-1 -6,-3 -1,-2 -1,-5 0,-7l54 -99c1,-3 4,-4 6,-4l48 0c2,0 5,1 6,4 1,2 1,5 0,7l-32 57 29 0c3,0 5,1 6,4 2,2 1,5 0,8l-104 124c-2,2 -4,3 -6,3z"/>
  <path class="fil2" d="M238 237c-3,-8 -11,-14 -20,-14 -12,0 -21,10 -21,22 0,12 9,22 21,22 9,0 17,-6 20,-15l-20 0c-4,0 -8,-3 -8,-7 0,-4 4,-8 8,-8l20 0z"/>
  <path class="fil2" d="M240 336c0,-12 -10,-22 -22,-22 -12,0 -21,10 -21,22 0,12 9,21 21,21 12,0 22,-9 22,-21z"/>
 </g>
</svg>
