<!DOCTYPE svg PUBLIC "-//W3C//DTD SVG 1.1//EN" "http://www.w3.org/Graphics/SVG/1.1/DTD/svg11.dtd">
<!-- Uploaded to: SVG Repo, www.svgrepo.com, Transformed by: SVG Repo Mixer Tools -->
<svg fill="#ffffff" version="1.1" id="Capa_1" xmlns="http://www.w3.org/2000/svg" xmlns:xlink="http://www.w3.org/1999/xlink" width="800px" height="800px" viewBox="0 0 170.832 170.832" xml:space="preserve" stroke="#ffffff">
<g id="SVGRepo_bgCarrier" stroke-width="0"/>
<g id="SVGRepo_tracerCarrier" stroke-linecap="round" stroke-linejoin="round"/>
<g id="SVGRepo_iconCarrier"> <g> <g> <path d="M34.62,74.373l7.475-4.667c3.39,3.683,7.442,6.534,11.833,8.479l-1.963,8.558l13.445,3.119l1.984-8.579 c4.802,0.201,9.693-0.6,14.372-2.418l4.656,7.479l11.713-7.324l-4.684-7.469c3.674-3.401,6.556-7.458,8.487-11.86l8.554,1.98 l3.118-13.469l-8.553-1.979c0.183-4.807-0.63-9.71-2.433-14.377l7.494-4.651l-7.344-11.716l-7.462,4.667 c-3.416-3.666-7.44-6.517-11.839-8.484L85.452,3.1L71.989,0l-1.984,8.569c-4.796-0.186-9.7,0.616-14.368,2.419l-4.673-7.48 l-11.677,7.319l4.664,7.474c-3.672,3.391-6.55,7.448-8.495,11.856l-8.567-1.981l-3.126,13.458l8.565,1.978 c-0.161,4.824,0.624,9.7,2.433,14.383l-7.475,4.657L34.62,74.373z M55.542,23.905c11.646-7.256,26.941-3.732,34.191,7.901 c7.266,11.603,3.719,26.922-7.894,34.167c-11.604,7.259-26.901,3.716-34.178-7.899C40.407,46.474,43.95,31.161,55.542,23.905z"/> <path d="M142.524,86.359l4.547-0.602l-0.952-7.146l-4.547,0.604c-0.805-2.378-2.089-4.624-3.825-6.575l2.802-3.636l-5.729-4.375 l-2.779,3.647c-2.353-1.16-4.832-1.814-7.344-1.967l-0.602-4.55l-7.145,0.971l0.602,4.542c-2.376,0.796-4.626,2.084-6.568,3.822 l-3.655-2.795l-4.355,5.72l3.655,2.786c-1.169,2.336-1.831,4.843-1.97,7.355l-4.553,0.607l0.952,7.14l4.553-0.607 c0.811,2.392,2.08,4.619,3.819,6.573l-2.794,3.648l5.729,4.373l2.801-3.65c2.318,1.172,4.809,1.83,7.326,1.965l0.606,4.536 l7.136-0.94l-0.603-4.548c2.376-0.788,4.618-2.08,6.569-3.819l3.647,2.797l4.378-5.729l-3.659-2.78 C141.726,91.371,142.388,88.854,142.524,86.359z M132.447,92.018c-3.734,4.892-10.726,5.815-15.619,2.084 c-4.882-3.726-5.812-10.718-2.091-15.603c3.754-4.897,10.738-5.833,15.617-2.091C135.235,80.146,136.177,87.136,132.447,92.018z"/> <path d="M103.456,121.971l-14.016-5.844l-5.737-14.052l14.006-13.922c-6.991-0.984-14.353,1.106-19.753,6.468 c-7.385,7.328-8.736,18.354-4.252,27.131l-38.95,38.615l0.01,0.018c-0.01,0.01-0.037,0-0.042,0.018 c-1.106,1.104,0.257,4.25,3.026,7.009c2.771,2.784,5.921,4.142,7.025,3.036c0,0,0-0.011,0.007-0.016l38.929-38.605 c8.78,4.541,19.79,3.267,27.177-4.065c5.396-5.379,7.531-12.723,6.599-19.722L103.456,121.971z"/> </g> </g> </g>
</svg>