<?xml version="1.0" encoding="UTF-8"?>
<!DOCTYPE svg PUBLIC "-//W3C//DTD SVG 1.1//EN" "http://www.w3.org/Graphics/SVG/1.1/DTD/svg11.dtd">
<!-- Creator: CorelDRAW -->
<svg xmlns="http://www.w3.org/2000/svg" xml:space="preserve" width="1.70666in" height="1.70666in" version="1.1" style="shape-rendering:geometricPrecision; text-rendering:geometricPrecision; image-rendering:optimizeQuality; fill-rule:evenodd; clip-rule:evenodd"
viewBox="0 0 1706.66 1706.66"
 xmlns:xlink="http://www.w3.org/1999/xlink"
 xmlns:xodm="http://www.corel.com/coreldraw/odm/2003">
 <defs>
  <style type="text/css">
   <![CDATA[
    .fil0 {fill:none}
    .fil1 {fill:#4A5254}
    .fil3 {fill:#A0A0A0}
    .fil2 {fill:#D7D7D7}
    .fil7 {fill:#FA3C48}
    .fil6 {fill:#FB626B}
    .fil5 {fill:#FFA725}
    .fil4 {fill:#FFCC00}
   ]]>
  </style>
 </defs>
 <g id="Layer_x0020_1">
  <metadata id="CorelCorpID_0Corel-Layer"/>
  <line class="fil0" x1="853.3" y1="219.66" x2="853.3" y2= "384.22" />
  <path class="fil1" d="M853.33 1706.64c-471.53,0 -853.32,-381.78 -853.32,-853.3 0,-471.54 381.78,-853.32 853.32,-853.32 471.55,0 853.32,381.76 853.32,853.32 0,471.55 -381.78,853.3 -853.32,853.3zm0 -154.1c-386.38,0 -699.22,-312.83 -699.22,-699.2 0,-386.38 312.83,-699.22 699.22,-699.22 386.39,0 699.22,312.82 699.22,699.22 0,386.39 -312.83,699.2 -699.22,699.2z"/>
  <path class="fil1" d="M853.33 1182.3c-76.17,0 -138.13,-61.97 -138.13,-138.12 0,-39.35 16.5,-76.28 45.53,-102.49l72.93 -392.55c4.01,-21.64 35.31,-21.65 39.34,0l72.94 392.55c29.03,26.21 45.53,63.14 45.53,102.49 -0,76.15 -61.97,138.12 -138.14,138.12z"/>
  <path class="fil2" d="M537.03 1147.93c-81.68,-81.67 -125.1,-187.36 -130.26,-294.57l-164.67 0c5.27,149.35 64.79,297.14 178.54,410.94 45.08,45.09 120.3,23.76 137.5,-36.07 8.29,-28.81 0.02,-59.17 -21.12,-80.31z"/>
  <path class="fil3" d="M406.77 853.36c-5.63,-116.91 34.23,-235.62 119.57,-326.97l-116.42 -116.42c-117.5,123.46 -173.43,284.32 -167.82,443.39l164.67 -0z"/>
  <path class="fil4" d="M409.92 409.97l116.42 116.42c3.49,-3.73 7.05,-7.42 10.69,-11.06 87.39,-87.4 201.83,-131.1 316.27,-131.11l-0 -164.56c-156.56,0.01 -313.11,59.78 -432.64,179.3 -3.63,3.63 -7.21,7.3 -10.74,11.01z"/>
  <path class="fil5" d="M853.3 219.66l0 164.56c114.46,-0.01 228.91,43.69 316.33,131.1 3.63,3.63 7.17,7.3 10.65,11.01l116.42 -116.42c-3.51,-3.69 -7.07,-7.34 -10.69,-10.96 -119.55,-119.55 -276.13,-179.31 -432.7,-179.3z"/>
  <path class="fil6" d="M1296.69 409.92l-116.42 116.42c85.36,91.34 125.24,210.05 119.63,326.96l164.58 -0c5.63,-159.07 -50.26,-319.9 -167.8,-443.37z"/>
  <path class="fil7" d="M1464.48 853.3l-164.58 0c-5.15,107.23 -48.56,212.94 -130.27,294.61 -51.7,51.68 -14.89,140.5 58.19,140.5 21.85,0 42.79,-8.68 58.23,-24.15 113.63,-113.86 173.15,-261.64 178.44,-410.97z"/>
 </g>
</svg>
