<?xml version="1.0" encoding="UTF-8"?>
<!DOCTYPE svg PUBLIC "-//W3C//DTD SVG 1.1//EN" "http://www.w3.org/Graphics/SVG/1.1/DTD/svg11.dtd">
<!-- Creator: CorelDRAW -->
<svg xmlns="http://www.w3.org/2000/svg" xml:space="preserve" width="2.33333in" height="2.33333in" version="1.1" style="shape-rendering:geometricPrecision; text-rendering:geometricPrecision; image-rendering:optimizeQuality; fill-rule:evenodd; clip-rule:evenodd"
viewBox="0 0 2333 2333"
 xmlns:xlink="http://www.w3.org/1999/xlink">
 <defs>
  <style type="text/css">
   <![CDATA[
    .fil0 {fill:url(#id0)}
   ]]>
  </style>
  <linearGradient id="id0" gradientUnits="userSpaceOnUse" x1="582.921" y1="1166.67" x2="1750.41" y2="1166.67">
   <stop offset="0" style="stop-opacity:1; stop-color:#FFB800"/>
   <stop offset="1" style="stop-opacity:1; stop-color:#FF5329"/>
  </linearGradient>
 </defs>
 <g id="Layer_x0020_1">
  <metadata id="CorelCorpID_0Corel-Layer"/>
  <path class="fil0" d="M1240 2020c-39,0 -79,-34 -117,-100l-85 -147 -36 -69 -16 74c-1,70 -64,100 -112,116l-165 58c-24,8 -50,4 -73,-12 -32,-23 -53,-66 -53,-107 0,-62 52,-88 98,-111l117 -59 58 -199c0,-2 1,-3 2,-5l68 -114 -38 0 -28 33 -39 38c-22,22 -48,36 -75,41 -29,5 -56,-3 -73,-21 -18,-17 -27,-47 -26,-79 1,-34 14,-66 36,-87l85 -85c2,-3 9,-11 18,-20 -62,-44 -117,-98 -162,-160 -6,-9 -4,-22 5,-28 8,-7 21,-5 27,4 46,63 101,116 165,159 14,-8 31,-12 49,-11l171 0c-5,-14 -7,-30 -7,-46 0,-8 1,-17 2,-25 -109,-35 -201,-108 -262,-205 -6,-10 -3,-22 7,-28 9,-6 21,-3 27,7 56,89 140,155 240,188 24,-52 77,-88 137,-88 61,0 114,36 138,88 99,-33 184,-99 240,-188 5,-10 18,-13 27,-7 9,6 12,18 6,28 -60,97 -153,170 -261,205 1,8 2,17 2,25 0,58 -32,108 -79,134l26 27c171,-26 328,-122 430,-263 7,-9 19,-11 28,-4 9,6 11,19 5,28 -104,142 -258,240 -429,273l33 35 59 0c50,0 91,40 91,90 0,50 -41,90 -91,90l-135 0c-5,0 -10,-2 -14,-6l-63 -68 -65 109 185 319c16,28 20,60 11,91 -8,31 -27,56 -55,72 -11,7 -23,10 -34,10zm164 -1376l-420 0c-91,0 -166,-74 -166,-165l0 -146c0,-11 9,-20 20,-20l712 0c11,0 20,9 20,20l0 146c0,91 -75,165 -166,165zm-44 -120c-11,0 -20,-9 -20,-20l0 -50c0,-11 9,-20 20,-20 11,0 20,9 20,20l0 50c0,11 -9,20 -20,20zm71 0c-11,0 -20,-9 -20,-20l0 -50c0,-11 9,-20 20,-20 11,0 20,9 20,20l0 50c0,11 -9,20 -20,20zm-462 19c-35,0 -63,-29 -63,-64 0,-35 28,-64 63,-64 35,0 64,29 64,64 0,35 -29,64 -64,64zm216 355c-121,0 -230,-72 -277,-184 -4,-10 1,-22 11,-26 10,-4 22,1 26,11 41,97 135,159 240,159 105,0 200,-62 240,-159 5,-10 16,-15 27,-11 10,4 15,16 10,26 -47,112 -155,184 -277,184z"/>
 </g>
</svg>
