<?xml version="1.0" encoding="iso-8859-1"?>
<!-- Generator: Adobe Illustrator 19.0.0, SVG Export Plug-In . SVG Version: 6.00 Build 0)  -->
<svg xmlns="http://www.w3.org/2000/svg" xmlns:xlink="http://www.w3.org/1999/xlink" version="1.1" id="Capa_1" x="0px" y="0px" viewBox="0 0 512 512" style="enable-background:new 0 0 512 512;" xml:space="preserve">
<rect x="241" style="fill:#BFA52E;" width="30" height="45"/>
<path style="fill:#FFE985;" d="M101.391,184.326L89.375,349.673l-10.506,8.193C60.522,372.175,50,403.728,50,427h226V48  c-36.871,0-102.01,15.853-128.944,41.006C120.259,114.038,104.041,147.891,101.391,184.326z"/>
<path style="fill:#FEDC3D;" d="M482,427c0-32.52-14.98-62.95-40.42-82.79l-11.05-152.06c-3.2-44-22.77-84.86-55.11-115.07  C342.91,46.72,300.5,30,256,30s-86.91,16.72-119.42,47.08c-32.34,30.21-51.91,71.07-55.11,115.07L70.42,344.21  C44.98,364.05,30,394.48,30,427h30c0-23.272,10.522-44.825,28.869-59.134l10.506-8.193l12.016-165.347  c2.65-36.436,18.868-70.288,45.665-95.32C183.99,73.853,219.129,60,256,60v367H482z"/>
<path style="fill:#DFC136;" d="M286,427H171c0,46.869,38.131,85,85,85L286,427z"/>
<path style="fill:#BFA52E;" d="M256,427h85c0,46.869-38.131,85-85,85V427z"/>
<polygon style="fill:#DFC136;" points="233.898,427 256,442 512,442 512,412 256,412 "/>
<rect y="412" style="fill:#FEDC3D;" width="256" height="30"/>
<g>
</g>
<g>
</g>
<g>
</g>
<g>
</g>
<g>
</g>
<g>
</g>
<g>
</g>
<g>
</g>
<g>
</g>
<g>
</g>
<g>
</g>
<g>
</g>
<g>
</g>
<g>
</g>
<g>
</g>
</svg>
